PathFileType	4	(X/Y/Z)	 s08c0201.trc
DataRate	CameraRate	NumFrames	NumMarkers	Units	OrigDataRate	OrigDataStartFrame	OrigNumFrames
200	200	4	50	mm	200	1501	2000
Frame#	Time	racr			lacr			c7			jug			rlel			rdr			llel			ldr			s2			lic			ric			lasi			rasi			rpsi			lpsi			rgt			lgt			rth1			rth2			rth3			rth4			rlfc			rmfc			rsh1			rsh2			rsh3			rsh4			rlmal			rmmal			rcal			rtoe			rmt5			lth1			lth2			lth4			lth3			llfc			lmfc			llmal			lmmal			lcal			lmt5			lsh1			lsh2			lsh3			lsh4			ltoe			SBIKE			LBIKE			RBIKE			
		X1	Y1	Z1	X2	Y2	Z2	X3	Y3	Z3	X4	Y4	Z4	X5	Y5	Z5	X6	Y6	Z6	X7	Y7	Z7	X8	Y8	Z8	X9	Y9	Z9	X10	Y10	Z10	X11	Y11	Z11	X12	Y12	Z12	X13	Y13	Z13	X14	Y14	Z14	X15	Y15	Z15	X16	Y16	Z16	X17	Y17	Z17	X18	Y18	Z18	X19	Y19	Z19	X20	Y20	Z20	X21	Y21	Z21	X22	Y22	Z22	X23	Y23	Z23	X24	Y24	Z24	X25	Y25	Z25	X26	Y26	Z26	X27	Y27	Z27	X28	Y28	Z28	X29	Y29	Z29	X30	Y30	Z30	X31	Y31	Z31	X32	Y32	Z32	X33	Y33	Z33	X34	Y34	Z34	X35	Y35	Z35	X36	Y36	Z36	X37	Y37	Z37	X38	Y38	Z38	X39	Y39	Z39	X40	Y40	Z40	X41	Y41	Z41	X42	Y42	Z42	X43	Y43	Z43	X44	Y44	Z44	X45	Y45	Z45	X46	Y46	Z46	X47	Y47	Z47	X48	Y48	Z48	X49	Y49	Z49	X50	Y50	Z50	
1501	7.5050	563.296631	1349.504534	-41.985219	557.155654	1317.984664	-396.790659	538.287178	1432.505261	-222.863697	499.906323	1272.345884	-211.187641	566.525789	1115.934418	99.351684	766.824216	937.701811	-28.786524	553.185888	1059.614166	-516.206716	777.182060	936.999214	-401.261255	-3.658632	1199.813879	-204.542724	184.926675	1218.409627	-382.759165	151.672038	1209.099925	-27.622239	183.745445	1168.545447	-304.499819	180.986736	1148.274193	-61.488961	26.761248	1236.278962	-147.609421	26.731221	1245.914919	-242.507390	75.256721	1074.836471	-20.485549	131.664089	1107.350325	-387.381259	177.653929	929.292871	-14.067470	241.676644	867.639006	-18.379490	265.581989	785.054818	-34.760498	272.924963	887.078196	-23.579685	328.977499	685.826799	-50.335958	309.847288	670.580432	-156.492381	292.049373	557.348868	-19.467924	316.493086	472.537717	-36.295713	293.961193	389.106323	-44.231810	344.845368	476.867771	-65.673159	288.457399	266.552911	-53.002262	302.635169	291.824996	-140.711245	217.344483	227.275407	-100.530195	512.883715	258.057199	-93.877512	429.003105	212.089497	-30.411607	236.297825	1026.606142	-379.764097	318.080213	998.656404	-366.439453	335.075550	1025.931734	-348.068484	376.661009	932.015706	-364.275900	445.865411	831.637963	-338.243549	430.074836	796.814955	-233.270191	130.013367	566.051534	-387.433500	160.354992	556.219686	-303.303093	63.016324	584.428603	-350.091111	186.010552	409.833103	-413.378110	358.348911	748.815298	-373.057580	306.177650	681.477612	-368.360294	226.428269	644.333436	-377.615872	320.950377	661.774311	-336.365018	267.862229	379.705219	-344.442217	-134.668918	944.299306	-219.320982	26.153716	84.967206	-426.615161	17.663803	80.042411	-28.249523	
1502	7.5100	564.135564	1351.110944	-44.727251	556.750146	1317.049126	-399.589058	538.753948	1432.942179	-226.200708	500.064671	1272.957168	-213.279534	567.991766	1118.014452	97.543001	767.236407	937.718278	-29.151148	552.405973	1057.236598	-516.218451	776.967191	936.818306	-400.609061	-3.575997	1200.430314	-200.743289	190.337551	1222.637039	-387.929660	155.250054	1208.597877	-25.716228	182.966583	1170.683122	-302.903780	182.751670	1147.050292	-59.663399	28.332843	1236.754956	-143.511374	26.587788	1246.973015	-237.571392	75.794006	1074.477099	-18.878666	130.669785	1111.430806	-386.105360	173.981631	926.844059	-12.723658	236.265855	863.496798	-17.185834	257.865776	780.282935	-33.497872	267.876813	882.072881	-23.068836	318.879114	679.312298	-49.577822	297.874908	665.116457	-155.894875	283.289374	550.865876	-18.072255	307.855779	466.309411	-35.437414	286.112715	382.548334	-43.677452	335.127977	471.116226	-63.638563	282.045407	259.876355	-52.770967	296.234637	285.311400	-140.370511	210.945626	221.449990	-100.647158	506.977811	248.476367	-93.946306	422.548574	203.546743	-30.468783	236.359320	1031.581648	-378.577250	318.545102	1005.207110	-365.412889	335.079527	1032.727705	-346.823394	379.037431	939.625452	-362.786880	449.844206	840.195641	-337.414322	434.651496	805.052908	-232.400700	134.393681	574.283738	-386.264140	164.862592	564.725632	-302.278231	66.769695	591.685278	-349.207044	192.792428	419.389566	-412.942479	362.329571	757.575489	-371.987372	309.647559	689.719514	-366.181472	230.527953	652.954511	-376.531259	325.557262	670.196194	-336.602027	275.007918	389.955451	-343.088908	-134.595469	944.369160	-218.934311	26.186251	85.124996	-426.595804	17.667929	80.068194	-28.225350	
1503	7.5150	565.228294	1352.523720	-47.783373	555.686500	1315.050676	-400.238183	539.170330	1433.304182	-229.504883	499.753858	1273.752744	-213.779237	569.170854	1120.059172	95.081833	767.496423	937.653776	-29.433230	551.663110	1054.895581	-516.116243	776.698940	936.810194	-400.012837	-4.642758	1200.533582	-196.525024	193.788952	1226.101221	-391.076844	158.508631	1207.916524	-24.170015	182.114233	1172.714439	-301.352194	184.146110	1145.489947	-58.513806	30.061064	1237.157562	-139.778415	26.580409	1247.938977	-233.918839	76.280326	1074.448112	-17.282915	129.653301	1115.452407	-384.669519	170.197974	924.667061	-11.252811	230.807370	859.492795	-15.755606	249.863581	775.903512	-31.739574	263.777622	877.740058	-20.705281	308.637304	673.304753	-48.895202	286.859565	659.387000	-154.881162	273.182552	544.583480	-17.141179	298.710881	460.459627	-34.423870	277.784475	376.521799	-42.997250	326.187616	465.545595	-62.502358	275.079337	253.679645	-52.382124	289.577710	279.255151	-139.899383	204.037104	216.243368	-100.746268	500.653380	239.049927	-94.066462	415.590809	195.360568	-30.543987	236.348942	1036.752051	-377.589345	319.089130	1012.002386	-364.483063	334.991563	1039.679976	-345.495407	380.893666	947.633744	-362.331129	453.710126	848.604790	-336.747790	439.201969	813.355791	-231.825278	139.025301	582.048194	-385.163644	169.706677	572.788167	-301.374569	70.668216	598.211534	-348.319903	200.128264	428.556904	-412.466353	366.530708	766.320787	-371.096098	313.870018	698.237981	-365.473996	234.853831	661.296688	-375.594167	330.538149	679.007619	-337.358922	281.664575	399.934145	-342.253484	-134.496440	944.479441	-218.544496	26.188198	85.271521	-426.650418	17.655730	80.072016	-28.150204	
1504	7.5200	566.268494	1354.420322	-50.354643	555.219199	1314.127039	-402.660928	539.553919	1433.490027	-232.632768	500.197378	1274.053993	-215.678585	570.497850	1122.014407	92.862638	767.501606	937.428545	-30.138318	550.846738	1052.653000	-516.064204	776.428004	936.937161	-399.574902	-0.963720	1200.424574	-194.034677	195.475258	1228.869838	-392.407807	161.607578	1207.250409	-23.079957	181.252353	1174.779743	-299.976240	185.829866	1144.010869	-57.317207	30.944424	1237.703395	-136.163337	26.952575	1249.004945	-230.750910	76.575665	1074.547184	-15.836469	128.704388	1119.433681	-383.288881	166.388438	922.801415	-9.692350	225.141956	856.007710	-14.256299	242.037541	771.803019	-29.544196	260.572300	873.716712	-18.192072	298.393007	667.790114	-47.502924	276.044697	654.138530	-153.763416	262.994888	539.038094	-15.977598	289.355096	455.079059	-33.254326	269.088411	371.111162	-42.097002	317.306494	460.401878	-61.928648	267.684260	248.171839	-51.874429	282.794660	273.612468	-139.373920	196.388329	211.413221	-101.278290	493.860514	230.022393	-94.263800	408.230716	187.602388	-30.670131	236.311131	1042.146069	-376.754198	319.559039	1018.843970	-363.745619	334.834582	1046.608828	-344.208280	382.640193	955.740700	-362.073139	456.791794	856.965538	-337.007112	443.731578	821.687453	-231.562279	144.023397	589.255599	-384.196244	175.304960	580.947462	-300.530954	75.405751	604.288857	-347.365010	207.939639	437.243773	-411.796103	368.543617	770.849431	-362.997444	318.242179	706.598606	-364.945155	239.359129	669.341716	-374.806866	335.686752	686.648619	-337.455694	289.572182	410.279136	-342.263932	-134.412486	944.592684	-218.244778	26.194744	85.543780	-426.530074	17.672145	80.126229	-28.129050	
